<svg version="1.2" xmlns="http://www.w3.org/2000/svg" viewBox="0 0 512 512" width="512" height="512">
	<style>
		.s0 { fill: #ffffff } 
	</style>
	<path id="Path 0" fill-rule="evenodd" class="s0" d="m163.5 21.08c112.45-0.04 139.2 0.21 144.5 1.31 3.57 0.75 10.1 3.1 14.5 5.22 5.93 2.87 10.16 5.93 16.36 11.88 4.84 4.64 9.97 10.74 12.19 14.51 2.11 3.58 5.1 10.1 9.45 22.5v91.64c0 90.27-0.03 91.68-2 93.79-1.31 1.39-3.22 2.14-5.5 2.14-2.08 0-4.17-0.73-5.14-1.79-1.49-1.61-1.71-10.3-2.37-91.28-0.6-72.95-1-90.52-2.17-95-0.8-3.03-2.88-8.2-4.63-11.5-1.76-3.3-5.89-8.71-9.19-12.02-3.3-3.31-8.02-7.16-10.5-8.55-2.48-1.4-7.65-3.72-18.5-7.81l-135-0.6c-74.25-0.33-136.13-0.77-137.5-0.98-1.37-0.2-3.29-0.41-4.25-0.46-1.02-0.05-2.17-1.34-2.75-3.08-0.55-1.65-0.66-4.19-0.25-5.65 0.41-1.46 1.65-3.01 2.75-3.44 1.1-0.43 64.1-0.8 140-0.83zm93.47 105.19c3.79 0.2 4.63 0.63 5.57 2.89 0.93 2.22 0.42 5.07-3.14 17.5-2.34 8.16-5.08 18.21-6.08 22.34-1.5 6.2-1.82 11.68-1.81 55.5l3.16 10.5c1.74 5.78 6.28 17.7 10.1 26.5 3.81 8.8 8.1 19.6 9.53 24 1.43 4.4 3.28 10.7 4.11 14 0.83 3.3 2.19 10.5 3.01 16 0.82 5.5 2.41 19 3.54 30 1.12 11 2.04 24.73 2.04 30.5-0.01 5.77-0.7 14.77-1.54 20-0.85 5.27-4.17 17.28-7.46 27-4.52 13.34-6.09 19.52-6.63 26-0.61 7.44-0.44 9.06 1.39 13 1.15 2.48 3.93 6.19 6.17 8.25 2.29 2.11 5.93 4.24 8.32 4.86 2.62 0.69 9.23 0.93 17.25 0.62 9.92-0.39 15.37-1.16 23-3.25 7.23-1.99 13.18-2.88 21.5-3.21 10.05-0.4 13.57-0.05 28 2.77 12.73 2.49 19.36 3.25 29 3.34 6.88 0.07 18.13-0.51 25-1.28 11.32-1.27 13.4-1.24 22 0.32 5.23 0.95 11.07 1.46 13 1.15 1.93-0.32 4.5-1.59 5.73-2.82 1.22-1.24 2.68-3.71 3.25-5.5 0.56-1.79 0.91-3.26 0.77-3.27-0.14-0.01-7-1.27-30.25-5.62l-15.5-8.55c-8.52-4.71-24.5-13.08-35.5-18.62-11-5.54-22.64-12.01-25.86-14.38-3.22-2.37-8.06-7.24-10.74-10.81-2.69-3.57-6.3-9.88-8.02-14-1.72-4.12-3.51-10.2-3.98-13.5-0.47-3.3-0.87-11.74-0.88-18.75-0.02-11.43 0.19-12.96 1.98-14.75q2-2 6-2c3.08 0 4.32 0.52 5.37 2.25 0.85 1.41 1.78 8.42 2.49 18.75 0.97 14.2 1.48 17.27 3.69 22 1.42 3.02 4.35 7.86 6.51 10.75 2.17 2.89 6.3 6.77 9.19 8.63 2.89 1.85 11.32 6.41 18.75 10.12 7.43 3.71 22.05 11.4 51.5 27.43l16.75 3.04c9.21 1.67 18.32 3.71 23.75 6.03l0.01 8.25c0.01 4.54-0.65 10.5-1.46 13.25-0.8 2.75-2.98 6.8-4.84 9-1.99 2.37-5.58 4.97-8.79 6.38-5.1 2.24-6.09 2.34-16.92 1.62-6.32-0.42-14.65-0.72-18.5-0.66-3.85 0.05-17.57 0.22-30.5 0.36-22.34 0.24-24.19 0.11-37.5-2.57-8.08-1.62-17.17-2.81-21.5-2.79-4.48 0.01-10.52 0.86-15 2.11-4.12 1.14-9.98 2.58-13 3.19-3.57 0.71-11.99 0.88-24 0.47-16.42-0.56-19-0.88-22.94-2.87-2.45-1.23-6.75-4.49-9.56-7.24-2.81-2.75-6.17-7.25-7.47-10-1.3-2.75-2.83-7.7-3.4-11-0.75-4.38-0.69-8.43 0.23-15 0.73-5.25 3.49-15.67 6.61-25 2.94-8.8 6.07-19.82 6.95-24.5 0.88-4.68 1.59-13.45 1.57-19.5-0.01-6.05-0.89-19.55-1.95-30-1.05-10.45-2.67-23.73-3.59-29.5-0.92-5.77-2.97-14.89-4.56-20.25-1.59-5.36-6.2-17.51-10.24-27-4.04-9.49-8.31-20.18-9.48-23.75-1.16-3.57-2.83-9.43-3.7-13-1-4.11-1.8-13.66-2.18-26q-0.6-19.5 0.61-28.5c0.67-4.95 2.27-13.5 3.57-19 1.3-5.5 2.29-10.11 2.2-10.25-0.09-0.14-3.32 0.92-7.17 2.36-3.85 1.44-11.05 3.93-16 5.54-4.95 1.62-17.32 5.36-27.5 8.31-10.18 2.96-21.2 5.9-24.5 6.54-5.43 1.04-6.24 0.97-8.5-0.77-1.37-1.06-2.65-3.01-2.82-4.33-0.18-1.32-0.11-3.3 0.16-4.4 0.27-1.1 1.99-2.74 3.83-3.65 1.83-0.91 12.11-4.16 22.83-7.22 10.72-3.05 26.03-7.79 34-10.52 7.97-2.73 19.45-7.01 25.5-9.51 8.3-3.43 12.1-4.5 15.47-4.33zm42.93-61.3c2.18-0.02 4.27 0.67 5.31 1.75 0.94 0.98 3.31 8.08 5.27 15.78 2.11 8.31 4.56 15.52 6.04 17.75 1.36 2.06 5.07 5.5 8.23 7.63 3.16 2.13 6.57 4.72 7.57 5.75 1.34 1.37 1.69 2.81 1.3 5.37-0.29 1.92-1.11 4.03-1.82 4.67-0.72 0.64-2.42 1.47-3.8 1.84-1.71 0.46-4.08-0.11-7.5-1.8-2.75-1.36-7.43-4.67-10.41-7.34-2.97-2.68-6.39-6.45-7.59-8.37-1.2-1.92-3.13-6.42-4.27-10-1.15-3.58-2.79-9.76-3.66-13.75-0.86-3.99-1.65-9.13-1.75-11.42-0.12-2.89 0.38-4.74 1.65-6 1.07-1.08 3.31-1.84 5.43-1.86zm-174.9 100.11c2.23-0.08 4.31 0.61 5.75 1.9 1.56 1.4 2.26 3.17 2.28 5.77 0.02 2.3-0.65 4.43-1.75 5.52-1.02 1.02-5.83 2.64-11.28 3.8-5.22 1.12-18.95 3.82-30.5 6.01-11.55 2.19-29.1 5.31-39 6.94-9.9 1.63-19.8 2.96-22 2.95-2.41-0.01-4.71-0.71-5.78-1.75-1.01-0.97-1.77-3.13-1.75-4.97 0.02-1.79 0.37-3.95 0.78-4.8 0.41-0.85 2.1-1.96 3.75-2.47 1.65-0.5 16.5-3.39 33-6.43 16.5-3.03 37.43-7.05 46.5-8.93 9.08-1.88 18.08-3.48 20-3.54zm227.9 122.95c2.02 0.01 4.38 0.78 5.38 1.75 1.53 1.48 1.78 3.52 1.75 14.47-0.03 11.94-0.17 12.88-2.28 14.77-1.24 1.11-3.26 2.01-4.5 2-1.24-0.01-3.37-0.7-4.75-1.52-2.45-1.47-2.5-1.77-2.68-14.67-0.16-11.57 0.04-13.39 1.65-15 1.11-1.11 3.24-1.82 5.43-1.8zm-48.1 102c2.12 0.01 4.46 0.76 5.48 1.75 1.11 1.06 1.77 3.15 1.75 5.47-0.02 2.06-0.53 4.76-1.14 6-0.61 1.24-1.14 3.82-1.16 5.75-0.04 2.36 0.89 4.78 2.86 7.42 1.88 2.54 2.91 5.13 2.91 7.34 0 2.46-0.7 3.97-2.5 5.37-1.37 1.08-3.74 1.94-5.25 1.91-1.66-0.02-4.17-1.33-6.33-3.29-1.97-1.79-4.44-5.05-5.48-7.25-1.26-2.63-1.92-6.23-1.94-10.5-0.02-3.57 0.49-8.07 1.12-10 0.64-1.93 2.24-4.96 3.56-6.75 1.97-2.66 3.08-3.25 6.12-3.22z"/>
</svg>