<svg version="1.2" xmlns="http://www.w3.org/2000/svg" viewBox="0 0 512 512" width="512" height="512">
	<style>
		.s0 { fill: #ffffff } 
	</style>
	<path id="Path 0" class="s0" d="m392.5 81.31c-2.2 0.7-6.02 2.44-8.5 3.87-2.48 1.43-6.64 4.9-9.25 7.71-2.61 2.81-5.87 7.47-7.24 10.36-1.37 2.89-2.94 8.06-3.5 11.5-0.67 4.15-0.68 8.35-0.02 12.5 0.54 3.44 2.3 8.95 3.92 12.25 1.77 3.62 5.14 8.08 8.51 11.25 3.07 2.89 7.94 6.36 10.83 7.72 2.89 1.36 7.95 2.86 11.25 3.33 3.32 0.48 8.9 0.49 12.5 0.02 3.57-0.47 8.75-1.93 11.5-3.27 2.75-1.33 7.02-4.17 9.5-6.32 2.48-2.14 5.92-6.11 7.66-8.81 1.74-2.71 3.88-7.39 4.76-10.42 0.88-3.03 1.6-8.54 1.59-12.25-0.01-4.2-0.81-9.11-2.12-13-1.16-3.44-3.34-8.05-4.84-10.25-1.51-2.2-4.72-5.71-7.15-7.8-2.42-2.09-6.88-4.99-9.9-6.45-4.61-2.21-7.12-2.69-15.5-2.93-6.18-0.18-11.53 0.19-14 0.99zm-95.5 59.8c-3.57 0.48-9.87 1.79-14 2.93-4.12 1.13-11.1 3.79-15.5 5.91-4.4 2.11-11.6 6.51-16 9.77-4.4 3.27-11.82 9.97-16.5 14.89-4.68 4.92-9.98 11.19-11.79 13.92-1.81 2.73-3.72 6.66-4.25 8.72-0.62 2.44-0.61 5.15 0.04 7.75 0.55 2.2 2.46 5.65 4.25 7.67 1.79 2.01 5.28 4.56 7.75 5.66 2.73 1.21 6.67 1.99 10 1.99 3.65 0 6.93-0.73 9.75-2.16 2.62-1.33 6.3-4.75 9.58-8.91 2.93-3.71 7.99-9.12 11.25-12.02 3.26-2.9 8.85-6.78 12.42-8.62 3.57-1.84 8.75-3.88 11.5-4.54 2.75-0.66 8.82-1.17 13.5-1.14 4.68 0.04 10.62 0.63 13.21 1.32l4.71 1.25c-7.84 13.95-18 33.3-27.64 52-9.63 18.7-19.43 36.7-21.77 40-2.34 3.3-7.8 9.4-12.13 13.55-4.34 4.14-11.03 9.3-14.88 11.45-3.85 2.15-9.59 4.71-12.75 5.7-3.57 1.12-8.88 1.8-14 1.81-4.54 0.01-10.5-0.64-13.25-1.44-2.75-0.8-8.37-3.06-12.5-5.02-5.76-2.74-8.77-3.56-13-3.57-4.43 0-6.56 0.63-10.96 3.26-4.29 2.57-6.05 4.43-8.28 8.76-1.96 3.81-2.81 6.96-2.79 10.25 0.02 2.61 0.69 6.21 1.51 8 0.81 1.79 2.95 4.69 4.75 6.44 1.8 1.76 6.87 4.99 11.27 7.19 4.4 2.19 12.05 5.15 17 6.58 4.95 1.42 13.28 2.98 18.5 3.45 5.37 0.5 13.63 0.5 19 0.01 5.22-0.48 13.55-2.01 18.5-3.41 4.95-1.39 13.5-4.76 19-7.48 5.5-2.73 12.93-7.18 16.5-9.89 3.57-2.72 9.31-7.91 12.75-11.54l6.25-6.6c11.24 4.72 18.32 8.15 23 10.68 4.68 2.52 12.77 7.26 18 10.54 5.23 3.28 13.32 8.8 18 12.28 4.68 3.48 9.44 7.61 10.59 9.17 1.15 1.55 4.14 6.43 6.64 10.83 2.5 4.4 9.12 17.9 14.72 30 5.59 12.1 11.27 23.69 12.61 25.75 1.34 2.06 4.24 4.65 6.44 5.75 2.63 1.32 5.96 1.99 9.75 1.98 3.37-0.01 7.4-0.77 9.75-1.84 2.2-1 5.37-3.35 7.06-5.23 1.68-1.87 3.65-5.21 4.37-7.41 0.73-2.2 1.11-5.57 0.85-7.5-0.26-1.93-3.96-11.15-8.23-20.5-4.27-9.35-11.55-24.43-16.18-33.5-4.64-9.07-10.67-19.54-13.4-23.25-3.23-4.39-8.37-9.38-14.72-14.29-5.36-4.15-14.93-11.06-21.25-15.37-6.32-4.31-14.29-9.36-17.7-11.21l-6.21-3.38c17.44-32.55 26.3-48.69 30.95-56.87 7.82-13.74 8.65-14.83 10.96-14.37 1.38 0.27 7 1.27 12.5 2.22 7.22 1.24 12.78 1.56 20 1.15 5.5-0.32 13.38-1.44 17.5-2.48 4.13-1.05 10.43-3.09 14-4.53 3.57-1.44 10.04-4.75 14.38-7.37 4.33-2.61 12.15-8.8 17.38-13.75 5.23-4.95 11.64-11.7 14.24-15 2.6-3.3 5.52-7.57 6.49-9.5 1.24-2.47 1.65-5.13 1.39-9.07-0.28-4.01-1.1-6.52-2.95-9-1.41-1.89-5.01-4.67-8-6.19-4.02-2.05-6.85-2.76-10.93-2.73-3.07 0.02-7.27 0.83-9.5 1.83-2.59 1.16-6.14 4.41-10.09 9.23-3.35 4.09-8.75 9.8-12 12.69-3.25 2.89-8.61 6.59-11.91 8.21-3.3 1.62-9.37 3.71-13.5 4.65-6.3 1.44-8.86 1.55-16 0.66-4.68-0.59-11.87-2.24-16-3.67-4.12-1.44-15.15-6.87-24.5-12.07-9.35-5.2-20.04-10.82-23.75-12.5-3.71-1.67-10.46-4.12-15-5.43-4.54-1.32-12.3-2.89-17.25-3.5-4.95-0.61-10.8-1.05-13-0.98-2.2 0.07-6.93 0.51-10.5 0.98zm-295 213.89c-1.15 1.15-2.02 3.38-2.04 5.25-0.03 1.79 0.83 4.38 1.91 5.75l1.95 2.5h149.36c3.03-3.87 3.89-6.46 3.86-8.25-0.02-1.87-0.89-4.1-2.04-5.25-1.96-1.96-3.33-2-76.5-2-73.17 0-74.54 0.04-76.5 2zm154.5-255.3c-1.1 0.28-3.02 1.47-4.28 2.65-1.25 1.18-2.28 3.28-2.28 4.65-0.01 1.38 0.91 3.74 2.03 5.25l2.03 2.75h166c3.15-4.26 4.05-6.51 4.03-7.75-0.01-1.24-1.12-3.49-2.44-5l-2.42-2.75c-124.52-0.23-161.57-0.07-162.67 0.2zm-144.94 75.37c-2.11 1.59-2.73 2.87-2.66 5.5 0.07 2.23 0.97 4.3 2.6 5.93l2.5 2.5c152 0.01 162.79-0.18 164.75-1.49 1.24-0.83 2.7-2.63 3.25-4.01 0.68-1.71 0.65-3.37-0.09-5.25-0.6-1.51-1.84-3.3-2.75-3.97-1.27-0.93-20.73-1.22-83.26-1.25-81.02-0.03-81.61-0.02-84.34 2.04zm49.42 85.24c-1.54 1.51-2.31 3.35-2.21 5.25 0.08 1.62 1.02 4.07 2.1 5.44l1.95 2.5h165.36c3.03-3.87 3.9-6.35 3.89-8-0.01-1.78-0.94-3.9-2.29-5.23l-2.28-2.23-164.16-0.04z"/>
</svg>