<svg version="1.2" xmlns="http://www.w3.org/2000/svg" viewBox="0 0 512 512" width="512" height="512">
	<style>
		.s0 { fill: #ffffff } 
	</style>
	<path id="Path 0" fill-rule="evenodd" class="s0" d="m146.5 0.5l6 2.41c4.23 1.7 7.8 4.21 12.09 8.5 4.3 4.31 6.79 7.85 8.49 12.09 2.29 5.73 2.41 7.22 2.73 33.5 0.21 16.71-0.08 29.85-0.73 33.5-0.59 3.3-2.6 9.15-4.47 13-2.93 6.05-5.64 9.18-36.33 39l-2.64 18c-1.45 9.9-3.14 23.85-3.76 31-0.65 7.49-0.86 19.78-0.5 29 0.34 8.8 1.54 22.3 2.68 30 1.13 7.7 3.1 18.27 4.38 23.5 1.27 5.23 4.38 17.38 6.9 27 2.53 9.63 5.7 23.57 7.06 31 1.35 7.43 3.23 19.8 4.17 27.5 0.94 7.7 1.76 14.12 1.82 14.26 0.06 0.14 11.14-3.52 24.61-8.14 13.47-4.63 27.76-9.69 31.75-11.26 3.99-1.57 7.41-2.63 7.59-2.36 0.19 0.27 1.5 3.43 2.91 7 1.42 3.57 2.28 6.84 1.92 7.25-0.37 0.42-5.17 2.47-10.67 4.56-5.5 2.09-23.86 8.5-40.8 14.25-25.95 8.8-30.93 10.2-31.65 8.94-0.47-0.82-1.12-6.45-1.45-12.5-0.32-6.05-1.29-16.4-2.16-23-0.86-6.6-2.65-17.85-3.98-25-1.33-7.15-4-19.07-5.94-26.5-1.94-7.43-4.86-18.68-6.48-25-1.63-6.32-3.88-17.13-5.01-24-1.12-6.87-2.57-20.15-3.22-29.5-0.91-13.11-0.9-20.89 0.02-34 0.65-9.35 2.08-23.07 3.17-30.5 1.09-7.43 2.21-14.51 2.49-15.75 0.51-2.24 0.44-2.25-23.49-2.25v-16h30l14.49-13.75c10.71-10.16 15.34-15.31 21.01-25.75l0.3-28c0.25-23.17 0.04-28.69-1.22-32-0.84-2.2-3-5.53-4.8-7.4-1.8-1.87-5.08-4.22-7.28-5.23-3.67-1.68-7.47-1.83-46.5-1.83-39.11 0-42.82 0.15-46.5 1.84-2.2 1.01-5.3 3.14-6.89 4.73-1.59 1.59-3.72 4.69-4.73 6.89-1.69 3.69-1.84 7.46-1.86 48-0.01 40.6-0.21 45.66-2.53 65.5-1.39 11.82-2.63 21.58-2.76 21.68-0.12 0.1-3.61-0.25-7.73-0.78-4.13-0.53-7.55-1.06-7.61-1.18-0.06-0.12 0.78-7.19 1.86-15.72 1.63-12.79 2.09-24.41 2.63-66.5 0.63-49.16 0.73-51.2 2.82-56.5 1.2-3.02 4.34-7.91 6.99-10.86 2.64-2.95 6.38-6.31 8.31-7.46 1.92-1.15 5.97-2.89 9-3.85 4.96-1.59 9.94-1.74 95.5-1.33zm-123.67 177.01c2.57 0.34 5.91 0.81 7.42 1.05 2.06 0.33 2.75 1.01 2.75 2.69 0 1.24-1.33 14.4-2.97 29.25-1.63 14.85-3.87 36.45-4.96 48-1.09 11.55-2.68 30.68-3.51 42.5-0.84 11.82-1.99 30.05-2.56 40.5-0.56 10.45-1.46 32.5-2 49-0.54 16.5-0.98 30.79-0.99 31.75-0.01 1.57 1.2 1.75 22.99 1.75v16h-23v14h43v16l-40.21 0.5 4.35 6.48c2.4 3.57 6.61 8.18 9.36 10.26 2.75 2.08 7.47 4.78 10.5 6 5.25 2.13 7.06 2.25 40 2.58 18.97 0.19 43.05-0.16 53.5-0.78 10.45-0.63 27.55-2.22 38-3.54 10.45-1.31 27.32-4.02 37.5-6.02 10.18-1.99 25.93-5.41 35-7.59 9.07-2.17 23.48-5.98 32-8.46 8.52-2.48 16.29-4.71 17.25-4.97 1.43-0.37 2.13 0.88 3.81 6.79 1.13 3.99 1.69 7.56 1.25 7.93-0.45 0.38-7.79 2.7-16.31 5.17-8.52 2.46-22.93 6.29-32 8.5-9.08 2.2-22.13 5.15-29 6.54-6.88 1.39-17.9 3.44-24.5 4.55-6.6 1.12-17.4 2.71-24 3.54-6.6 0.83-16.95 2-23 2.59-6.05 0.59-30.8 1.3-55 1.59-38.18 0.46-44.99 0.32-51.5-1.09-4.13-0.89-10.43-3.05-14-4.8-4.48-2.2-8.99-5.68-14.54-11.23-5.55-5.55-9.03-10.05-11.23-14.54-1.74-3.57-3.85-9.65-4.69-13.5-1.03-4.78-1.51-12.71-1.51-25 0-9.9 0.43-31.73 0.97-48.5 0.53-16.77 1.44-39.5 2.02-50.5 0.58-11 1.72-29.23 2.52-40.5 0.81-11.27 2.16-28.15 3-37.5 0.84-9.35 3.1-31.85 5.02-50 1.92-18.15 3.75-34.04 4.05-35.31 0.51-2.12 0.93-2.25 5.22-1.68zm489.17 46.49l0.01 15.5-11.25 0.77c-6.19 0.42-15.54 1.44-20.76 2.28-5.23 0.83-14.68 2.88-21 4.56-6.33 1.69-14.2 4.15-17.5 5.48-3.3 1.33-6.27 2.07-6.59 1.66-0.33-0.41-1.68-3.57-3-7.03-1.59-4.14-2.07-6.59-1.41-7.21 0.55-0.51 6.4-2.71 13-4.88 6.6-2.17 17.85-5.12 25-6.56 7.15-1.44 16.82-2.99 21.5-3.46 4.67-0.46 11.54-0.9 22-1.11zm-57 183.53c5.22 0.27 12.31 1.16 15.75 1.98 3.44 0.82 9.06 2.66 12.5 4.1 3.44 1.44 9.62 3.47 13.75 4.51 4.12 1.05 9.19 1.9 15 1.88l0.02 16.5-7.76-0.83c-4.27-0.46-11.14-1.88-15.26-3.16-4.13-1.27-11.33-3.69-16-5.37-5.21-1.88-11.59-3.32-16.5-3.73-5.8-0.49-10.34-0.21-16.5 1.01-6.52 1.29-12.92 3.79-27.5 10.74-10.45 4.98-26.88 12.44-36.5 16.57-9.63 4.13-24.48 10.09-33 13.24-8.53 3.16-17.86 6.6-20.74 7.64-3.43 1.24-5.54 1.55-6.12 0.89-0.48-0.55-1.84-3.81-3.01-7.25-1.17-3.44-1.79-6.44-1.38-6.67 0.41-0.23 6.37-2.43 13.25-4.87 6.87-2.45 19.47-7.25 28-10.67 8.52-3.42 22.47-9.38 31-13.24 8.52-3.86 20.22-9.38 26-12.27 5.77-2.89 12.97-6.05 16-7.04 3.02-0.98 8.65-2.39 12.5-3.12 4.28-0.81 10.69-1.14 16.5-0.84zm-85.5-397.15c3.3 0.18 7.8 1.17 10 2.2 2.2 1.03 5.83 3.69 8.07 5.9 2.64 2.62 4.69 5.94 5.88 9.52 1.21 3.68 1.67 7.32 1.37 11-0.25 3.02-1.21 7.07-2.14 9-0.93 1.92-4.39 6.87-7.68 11-3.3 4.12-7.54 10.42-9.44 14-1.89 3.57-4.16 9.42-5.04 13-1.08 4.38-1.84 13.93-3.02 51.95l-10-9.8-4.5 2.38c-2.48 1.31-5.06 2.4-5.75 2.42-0.69 0.03-3.55-3.44-11.45-15.45l-4.65 4.77c-2.56 2.63-5 4.43-5.43 4-0.43-0.42-0.77-7.97-0.77-16.77 0.01-10.49-0.5-18.41-1.49-23-0.82-3.85-2.54-9.25-3.82-12-1.28-2.75-5.11-9.28-8.52-14.5-3.41-5.23-6.47-11.08-6.79-13-0.32-1.93-0.34-5.75-0.04-8.5 0.39-3.54 1.46-6.15 3.66-8.91 1.71-2.15 5.01-5 7.33-6.33 3.59-2.05 5.28-2.36 11.37-2.09 6.3 0.29 7.63 0.71 11.25 3.58 2.25 1.79 4.32 3.25 4.6 3.25 0.27 0 0.49-0.56 0.47-1.25-0.01-0.69 1.34-3.16 3-5.5 1.67-2.34 4.83-5.38 7.03-6.75 2.2-1.38 5.46-2.94 7.25-3.47 1.79-0.53 5.95-0.82 9.25-0.65zm-91.5 79.66c1.86-0.02 4.88 2.42 11.75 9.47 7.5 7.7 9.25 10.06 9.25 12.49 0 2.13-0.72 3.43-2.5 4.5-1.94 1.16-3 1.25-4.75 0.39-1.24-0.61-6.19-5-11.01-9.75-7.12-7.03-8.78-9.24-8.92-11.84-0.11-2.25 0.41-3.5 1.76-4.22 1.06-0.56 3.04-1.03 4.42-1.04zm126.98 20.95c0.84 0 2.53 0.67 3.77 1.5 1.41 0.95 2.26 2.54 2.27 4.26 0.02 2.16-2.07 4.83-9.75 12.46-5.37 5.35-10.45 9.74-11.27 9.76-0.83 0.03-2.51-0.63-3.75-1.46-1.26-0.85-2.35-2.71-2.48-4.24-0.2-2.27 1.45-4.39 9.73-12.5 5.48-5.37 10.65-9.77 11.48-9.78zm-122.73 16c9.27 0 12.8 0.36 14.5 1.5q2.25 1.51 2.25 4.51 0 3-2.25 4.51c-1.7 1.14-5.23 1.5-14.5 1.5-10.91-0.01-12.47-0.23-14.25-2.01-1.1-1.1-2-2.9-2-4 0-1.1 0.9-2.9 2-4 1.78-1.78 3.34-2 14.25-2.01zm-218.25 3.01h15v16h-15zm338.1 18.33c7.81 0.13 11.04 0.56 12.29 1.67 0.97 0.85 1.68 2.9 1.65 4.75-0.03 2.22-0.67 3.57-2.04 4.25-1.1 0.55-7.63 1-14.5 1-9.78 0-12.83-0.33-14-1.5-0.83-0.83-1.52-2.74-1.54-4.25-0.03-1.51 0.53-3.27 1.25-3.9 0.71-0.64 2.41-1.39 3.79-1.67 1.37-0.28 7.27-0.44 13.1-0.35zm-108.37 0.67c2.27 0 3.58 0.61 4.27 2 0.55 1.1 1.01 2.79 1.02 3.75 0.01 0.96-4.15 6.12-9.25 11.45-6.22 6.52-10.01 9.72-11.52 9.75-1.24 0.03-3.15-0.4-4.25-0.95-1.28-0.64-2.08-2.16-2.23-4.23-0.21-2.88 0.8-4.25 9.23-12.5 8.04-7.87 9.95-9.27 12.73-9.27zm31.27 0.03c0.82-0.03 3.75 2.17 11.5 9.83l10.63-5.36 10.55 11 0.57 8c0.32 4.61 1.57 10.75 2.94 14.5 1.31 3.57 5.15 10.77 8.54 16 3.39 5.22 6.86 11.19 7.71 13.25 0.86 2.06 1.56 5.55 1.56 7.75 0 2.2-0.7 5.69-1.55 7.75-0.86 2.06-2.77 5.03-4.25 6.59-1.49 1.56-4.5 3.76-6.7 4.87-3.14 1.6-5.43 1.95-10.66 1.66-5.38-0.3-7.53-0.95-15.59-6.37l-1.24 2.5c-0.68 1.37-2.42 4.01-3.87 5.85-1.45 1.84-5.34 4.69-8.64 6.34-5.33 2.66-6.78 2.95-13 2.59-5.21-0.3-8.15-1.07-11.5-3-2.48-1.43-5.71-3.88-7.2-5.44-1.48-1.56-3.68-5.09-4.89-7.84-1.44-3.29-2.2-7.06-2.22-11-0.02-4.17 0.61-7.22 2.06-10 1.14-2.2 4.63-7.15 7.74-11 3.11-3.85 6.97-9.59 8.58-12.75 1.61-3.16 3.85-9.01 4.97-13 1.12-3.99 2.34-11.89 3.37-27.87l4.55-2.39c2.5-1.32 5.21-2.42 6.04-2.46zm64.75 20.98c2.15 0 4.76 2.07 12 9.5 7.09 7.27 9.25 10.13 9.27 12.24 0.01 1.51-0.53 3.31-1.2 4-0.67 0.69-2.59 1.25-4.27 1.26-2.53 0-4.62-1.59-12.2-9.25-5.03-5.09-9.42-10.27-9.75-11.51-0.4-1.51 0.05-2.9 1.4-4.25 1.1-1.1 3.24-2 4.75-1.99zm25.75 76.04c0.55-0.01 2.24 3.12 3.75 6.96 1.51 3.85 2.64 7.15 2.5 7.34-0.14 0.2-5.65 2.72-12.25 5.61-6.6 2.9-20.33 9.41-30.5 14.47-10.18 5.07-23.68 12.07-30 15.56-6.33 3.5-16 9.05-21.5 12.34-5.5 3.28-17.88 11.02-27.5 17.18-9.63 6.17-22 13.81-27.5 16.97-5.5 3.17-15.29 8.41-21.75 11.64-6.46 3.23-12.2 5.88-12.75 5.88-0.55 0-2.36-3.04-4.02-6.75-1.67-3.71-3.02-6.86-3-7 0.01-0.14 7.56-4.07 16.77-8.74 9.21-4.67 23.05-12.48 30.75-17.35 7.7-4.87 19.17-12.14 25.5-16.15 6.32-4.01 18.47-11.3 27-16.2 8.52-4.89 23.6-13 33.5-18.03 9.9-5.02 25.2-12.41 34-16.41 8.8-4.01 16.45-7.3 17-7.32zm-14.5 44.95h15v16h-15zm-327 163h15v16h-15z"/>
</svg>