<svg version="1.2" xmlns="http://www.w3.org/2000/svg" viewBox="0 0 512 512" width="512" height="512">
	<style>
		.s0 { fill: #9ec7f0 } 
		.s1 { fill: #000000 } 
		.s2 { fill: #cbe3fa } 
		.s3 { fill: #eef7ff } 
		.s4 { fill: #b5d5f5 } 
	</style>
	<g id="Background">
		<path id="Path 0" class="s0" d="m322.88 110.6c3.2 3.79 8.53 10.5 11.85 14.9 3.31 4.4 8.51 11.82 11.55 16.5 3.04 4.68 8.61 14.03 12.37 20.79 3.77 6.77 7.08 12.27 7.35 12.23 0.27-0.03 3.8-2.64 7.84-5.79 6-4.68 7.22-6.09 6.66-7.73-0.38-1.1-0.9-3.35-1.17-5-0.34-2.12 0.24-4.02 1.97-6.5 1.35-1.93 2.94-5.3 3.55-7.5 0.61-2.2 0.77-5.12 0.38-6.5-0.52-1.78-1.52-2.57-3.48-2.75-1.51-0.14-4.66-1.77-7-3.63-2.34-1.87-7.62-5.55-11.75-8.2-4.12-2.64-10.65-6.25-14.5-8.02-3.85-1.76-10.82-4.35-15.5-5.75-4.68-1.4-10.18-2.86-12.22-3.25l-3.72-0.7zm-219.42 208.98c0.37 2.16 2.24 8.64 4.16 14.42 1.92 5.77 5.51 14.32 7.97 19 2.46 4.67 7.64 12.77 11.52 18 4.78 6.45 6.93 10.22 6.71 11.73-0.3 2.04 0.09 2.23 4.43 2.25 2.68 0.01 6.38-0.8 8.5-1.86 2.06-1.03 6.41-4.74 9.66-8.25 3.25-3.5 7.08-8.06 8.5-10.14 1.42-2.07 2.36-3.9 2.09-4.06-0.28-0.16-4.78-2.7-10-5.63-5.23-2.93-12.88-7.59-17-10.36-4.13-2.76-11.1-7.76-15.5-11.09-4.4-3.33-11.09-8.73-14.86-12l-6.86-5.93z"/>
		<path id="Path 1" fill-rule="evenodd" class="s1" d="m77.25 0.09c12.51-0.05 25.79 0.36 29.5 0.9 3.71 0.55 11.92 1.7 18.25 2.56 6.32 0.86 17.8 2.93 25.5 4.61 7.7 1.68 20.97 5.31 29.5 8.08 8.53 2.76 20.22 7.01 26 9.44 5.78 2.43 16.35 7.46 23.5 11.19 7.15 3.72 17.05 9.28 22 12.34 4.95 3.07 12.82 8.38 26 18.05l15.5 0.21c10.1 0.13 18.29 0.8 23.5 1.92 4.4 0.94 11.6 2.88 16 4.31 4.4 1.43 11.38 4.14 15.5 6.01 4.13 1.88 12 6.39 17.5 10.04 5.95 3.95 14.11 10.7 20.15 16.69 8.06 7.98 10.85 11.51 13.48 17.06 2.88 6.08 3.31 7.98 3.24 14.5-0.05 4.4-0.77 9.36-1.76 12-0.93 2.47-2.91 6.26-4.4 8.41-1.49 2.15-4.06 4.44-5.71 5.11-1.65 0.66-4.07 0.99-5.37 0.72-1.3-0.26-3.23-1.66-4.28-3.11-1.06-1.45-1.91-3.75-1.89-5.13 0.02-1.37 1.1-4.07 2.42-6 1.31-1.93 2.87-5.3 3.46-7.5q1.08-4 0.13-8c-0.52-2.2-2.19-5.75-3.71-7.88-1.52-2.14-5.69-6.64-9.26-10.01-3.57-3.37-9.43-8.22-13-10.78-3.57-2.55-9.87-6.46-14-8.68-4.12-2.22-11.55-5.4-16.5-7.07-4.95-1.66-13.27-3.67-18.5-4.46-5.23-0.78-9.84-1.25-10.25-1.02-0.41 0.22 4.09 5.48 10 11.7 5.91 6.21 14.35 15.77 18.75 21.24 4.4 5.47 11.6 15.35 16 21.96 4.4 6.61 10.79 17.19 14.2 23.51 3.42 6.32 8.43 16.67 11.14 22.99 2.72 6.32 6.59 16.22 8.61 22 2.01 5.78 5.17 16.35 7.02 23.5 1.84 7.15 4.26 18.4 5.38 25 1.12 6.6 2.56 17.18 3.21 23.5 0.64 6.32 1.23 19.26 1.3 28.75 0.08 9.48 0.48 17.25 0.89 17.25 0.41 0 5.36-1.54 11-3.43 5.64-1.89 14.07-3.98 18.75-4.65 5.04-0.71 12.57-0.96 18.5-0.61 5.5 0.33 13.15 1.45 17 2.5 3.85 1.04 9.93 3.11 13.5 4.6 3.57 1.49 9.65 4.8 13.5 7.37 3.85 2.56 9.03 6.7 11.51 9.19 2.48 2.49 5.75 7.01 7.26 10.03 1.52 3.02 3.27 8.65 3.9 12.5 0.86 5.26 0.86 8.49 0 13-0.63 3.3-2.46 8.7-4.06 12-1.92 3.94-5.1 8.02-9.27 11.9-3.49 3.24-10.39 8.54-15.34 11.77-4.95 3.24-12.37 7.28-16.5 8.98-4.12 1.7-10.87 3.94-15 4.98-4.12 1.04-10.87 1.88-22.5 1.86l-0.66 10.25c-0.43 6.71-1.54 13.03-3.22 18.26-1.41 4.4-4.42 11.6-6.67 16-2.26 4.4-6.66 11.54-9.78 15.86-3.12 4.32-7.92 9.93-10.67 12.46-2.75 2.54-8.26 6.09-12.25 7.9-6.26 2.83-8.35 3.28-15.25 3.28-6.62 0-9.25-0.52-15.25-3.01-3.99-1.65-8.82-4.27-10.75-5.82-1.93-1.55-5.86-5.93-8.75-9.74-2.89-3.81-6.78-9.86-8.63-13.43-1.85-3.57-4.31-9.43-5.45-13-1.14-3.57-2.54-9.2-3.13-12.5-0.58-3.3-1.05-7.8-1.05-10 0-2.2 0.67-5.01 1.5-6.25 0.83-1.24 2.64-2.7 4.01-3.25 1.84-0.74 3.43-0.6 6 0.5 1.93 0.82 3.89 2.29 4.36 3.25 0.48 0.96 1.15 4.68 1.48 8.25 0.34 3.57 1.58 9.65 2.75 13.5 1.18 3.85 3.16 9.02 4.42 11.5 1.25 2.48 4.35 7.31 6.88 10.75 2.83 3.84 6.44 7.31 9.36 9 3.97 2.3 5.9 2.75 11.75 2.72 5.25-0.02 8.06-0.59 11.25-2.25 2.34-1.22 6.39-4.81 9.01-7.97 2.62-3.16 6.88-9.13 9.47-13.25 2.58-4.13 6.14-11.32 7.9-16 2.83-7.5 3.22-9.73 3.29-19 0.04-5.77-0.34-12.98-0.85-16-0.89-5.31-0.82-5.6 2-8.35 2.74-2.68 3.25-2.81 7.93-2.02 2.75 0.45 9.95 0.81 16 0.79 9.35-0.03 12.12-0.44 18.5-2.73 4.13-1.48 11.03-4.83 15.35-7.44 4.32-2.61 10.37-6.77 13.45-9.25 3.08-2.48 6.98-6.72 8.65-9.42 2.6-4.2 3.05-5.89 3.02-11.5-0.01-4.5-0.64-7.83-2-10.55-1.08-2.18-3.54-5.48-5.47-7.34-1.93-1.85-6.65-5.32-10.5-7.71-3.85-2.39-10.6-5.6-15-7.13-7.3-2.54-9.22-2.78-22-2.75-12.28 0.03-15.11 0.37-23 2.74-4.95 1.49-13.39 4.95-18.75 7.69-5.36 2.73-10.87 4.97-12.25 4.97-1.37 0-3.74-1.09-8-4.83l0.5-12.83c0.27-7.06 0.39-19.14 0.26-26.84-0.14-7.7-0.74-18.95-1.34-25-0.6-6.05-2.16-16.85-3.47-24-1.31-7.15-3.93-18.63-5.82-25.5-1.88-6.88-5.1-17-7.15-22.5-2.05-5.5-5.7-14.39-8.11-19.75-2.4-5.36-6.67-13.91-9.48-19-2.81-5.09-8.36-14.2-12.33-20.25-3.97-6.05-10.96-15.72-15.54-21.5-4.59-5.78-14-16.13-20.93-23.02-6.92-6.89-17.32-16.31-23.09-20.94-5.77-4.63-16.36-12.27-23.53-16.98-7.16-4.71-18.86-11.56-26-15.23-7.13-3.67-17.92-8.69-23.97-11.15-6.05-2.46-15.95-6.09-22-8.05-6.05-1.97-15.5-4.71-21-6.09-5.5-1.37-16.53-3.61-24.5-4.95-7.97-1.35-20.57-2.94-28-3.52-7.42-0.59-19.35-1.06-26.5-1.05-7.15 0.01-15.92 0.44-19.5 0.95-3.58 0.5-8.75 1.88-11.5 3.05-2.75 1.17-7.25 3.84-10 5.94-2.75 2.1-6.69 6.23-8.76 9.18-2.07 2.95-4.74 8.29-5.92 11.86-1.95 5.87-2.16 8.67-2.18 29-0.01 15.11 0.54 27.1 1.68 36.5 0.93 7.7 2.99 20.3 4.57 28 1.59 7.7 4.55 19.63 6.6 26.5 2.04 6.88 5.75 17.68 8.24 24 2.49 6.32 6.83 16.18 9.65 21.89 2.81 5.72 5.35 10.51 5.62 10.66 0.28 0.14 4.55-0.34 9.5-1.07 4.95-0.73 13.5-2.47 19-3.85 5.5-1.39 13.6-3.85 18-5.48 4.4-1.63 11.15-4.39 15-6.13 3.85-1.75 11.05-5.56 16-8.48 4.95-2.92 12.82-8.12 17.5-11.57 4.68-3.44 13.16-10.81 18.86-16.37 5.69-5.55 13.17-13.7 16.62-18.1 3.44-4.4 8.62-11.6 11.49-16 2.88-4.4 7.62-12.95 10.55-19 2.93-6.05 6.81-15.27 8.63-20.5 1.81-5.22 4.1-10.29 5.08-11.25 1.06-1.05 3.27-1.74 5.52-1.73q3.75 0.02 6.03 2.25c1.46 1.43 2.26 3.39 2.25 5.48-0.02 1.79-1.43 7.19-3.13 12-1.71 4.81-5.45 13.7-8.32 19.75-2.87 6.05-7.61 14.82-10.52 19.5-2.91 4.68-7.67 11.65-10.57 15.5-2.9 3.85-8.3 10.38-11.99 14.5-3.69 4.13-10.38 10.81-14.85 14.86-4.48 4.05-11.53 9.89-15.65 12.98-4.13 3.09-12.22 8.44-18 11.9-5.78 3.45-15.22 8.35-21 10.88-5.78 2.53-15.22 6.15-21 8.05-5.78 1.89-16.13 4.57-23 5.96-6.88 1.39-12.57 2.6-12.65 2.7-0.08 0.09 2.73 4.45 6.24 9.67 3.51 5.23 10.11 14.19 14.65 19.92 4.54 5.73 13.21 15.43 19.26 21.56 6.05 6.12 15.05 14.49 20 18.6 4.95 4.1 13.5 10.63 19 14.51 5.5 3.88 13.82 9.34 18.5 12.12 4.68 2.79 12.78 7.2 18 9.81 5.22 2.6 14.22 6.66 20 9 5.78 2.35 15.45 5.86 21.5 7.8 6.05 1.94 16.18 4.72 22.5 6.18 6.32 1.46 17.35 3.6 24.5 4.75 10.89 1.76 18.28 2.14 45.5 2.38 32.38 0.28 32.51 0.29 34.78 2.58 1.33 1.35 2.28 3.52 2.29 5.29 0.01 1.65-0.79 4.05-1.78 5.32-1.17 1.53-3.51 2.65-6.79 3.28-2.75 0.52-15.13 0.95-27.5 0.96-12.38 0-27.23-0.47-33-1.06-5.77-0.59-14.77-1.75-20-2.57-5.23-0.83-14.68-2.66-21-4.07-6.32-1.42-17.8-4.61-25.5-7.1-7.7-2.48-17.6-6.04-22-7.89-4.4-1.86-8.45-3.36-9-3.33-0.55 0.02-3.25 3.23-6 7.12-2.75 3.89-8.15 10.07-12 13.74-3.85 3.66-9.03 7.65-11.5 8.87-2.47 1.22-7.2 2.65-10.5 3.18-4.01 0.64-7.82 0.61-11.5-0.1-3.03-0.58-7.08-1.85-9-2.83-1.93-0.98-6.39-4.2-9.91-7.15-3.53-2.95-9.3-8.74-12.83-12.87-3.53-4.12-8.36-10.43-10.74-14-2.38-3.57-5.95-9.76-7.93-13.75-1.97-3.99-3.59-8.6-3.59-10.25 0-1.67 0.89-3.89 2-5 1.1-1.1 3.24-2.29 4.75-2.65 1.67-0.39 3.73-0.08 5.25 0.78 1.43 0.82 4.43 5.06 7 9.91 2.47 4.67 6.75 11.63 9.5 15.47 2.75 3.84 8.15 10.17 12 14.08 3.85 3.9 8.57 8.06 10.5 9.25 2.41 1.48 5.13 2.15 8.75 2.16 3.14 0 6.76-0.75 9-1.88 2.06-1.03 6.41-4.74 9.66-8.25 3.26-3.5 7.08-8.06 8.5-10.14 1.43-2.07 2.37-3.89 2.09-4.06-0.28-0.16-4.78-2.69-10-5.62-5.22-2.92-14-8.38-19.5-12.12-5.5-3.74-14.95-10.77-21-15.61-6.05-4.85-16.63-14.44-23.5-21.32-6.88-6.87-16.49-17.45-21.35-23.5-4.86-6.05-12.57-16.63-17.11-23.5-4.55-6.87-11.23-17.9-14.85-24.5-3.62-6.6-9.02-17.63-12.01-24.5-2.98-6.87-7.32-18.13-9.64-25-2.33-6.87-5.72-18.35-7.55-25.5-1.82-7.15-4.25-18.63-5.39-25.5-1.14-6.87-2.53-16.55-3.09-21.5-0.55-4.95-1.29-16.88-1.63-26.5-0.37-10.4-0.19-21.76 0.46-28 0.61-5.78 2.1-13.42 3.33-17 1.22-3.58 4.5-9.85 7.28-13.95 2.78-4.1 7.52-9.52 10.55-12.04 3.02-2.52 8.42-6.04 12-7.83 3.57-1.78 9.65-4.09 13.5-5.12 5.82-1.56 10.85-1.89 29.75-1.97zm52.5 51.94c1.24-0.02 3.49 1.06 5 2.39 2.49 2.18 2.77 3.13 3.25 17.58h7c5.97 0 7.4 0.35 9.75 2.41 2.06 1.81 2.75 3.33 2.75 6.09 0 2.76-0.69 4.28-2.75 6.09-2.35 2.06-3.78 2.41-16.75 2.41l-0.25 7.58c-0.23 6.87-0.51 7.82-3 10-1.6 1.41-4 2.42-5.75 2.42-1.87 0-3.94-0.94-5.5-2.5-2.22-2.22-2.5-3.33-2.5-17.5h-7.5c-6.67 0-7.78-0.28-10-2.5-1.56-1.56-2.5-3.63-2.5-5.5 0-1.65 0.34-3.74 0.75-4.64 0.41-0.9 1.99-2.25 3.5-3 1.51-0.75 5.67-1.36 15.75-1.36l-0.02-7.25c-0.01-4.35 0.49-7.9 1.25-8.88 0.7-0.89 2.17-2.11 3.27-2.72 1.1-0.6 3.01-1.1 4.25-1.12z"/>
		<path id="Path 2" class="s2" d="m103.5 57.12c-4.4 0.47-10.7 1.55-14 2.39-3.3 0.84-9.6 3.28-14 5.42-4.4 2.13-10.47 5.86-13.5 8.28-3.02 2.42-7.69 7.3-10.36 10.84-2.68 3.55-6.34 9.38-8.14 12.95-1.79 3.58-4.39 10.1-5.77 14.5-1.38 4.4-3.24 12.28-4.13 17.5-0.89 5.22-1.61 10.51-1.61 11.75 0.01 1.24-1.34 3.6-2.99 5.25-1.65 1.65-3 3.9-3 5 0 1.1 2 8.64 4.43 16.75 2.44 8.11 6.43 19.7 8.86 25.75 2.44 6.05 6.63 15.45 9.32 20.89 2.69 5.44 5.12 10.01 5.39 10.15 0.27 0.15 4.55-0.33 9.5-1.06 4.95-0.73 13.5-2.47 19-3.85 5.5-1.39 13.6-3.85 18-5.48 4.4-1.63 11.15-4.39 15-6.13 3.85-1.75 11.05-5.56 16-8.48 4.95-2.92 12.82-8.12 17.5-11.57 4.68-3.44 13.16-10.81 18.86-16.37 5.69-5.55 13.17-13.7 16.62-18.1 3.44-4.4 8.62-11.6 11.49-16 2.88-4.4 7.62-12.95 10.55-19 2.93-6.05 6.81-15.27 8.63-20.5 1.81-5.22 4.1-10.29 5.08-11.25 0.97-0.96 3.12-1.75 4.77-1.75 2.45 0 3.11-0.5 3.62-2.75l0.63-2.75c2.33 4.04 6.99 7.12 13.52 10.5 5.85 3.03 15.49 8.54 21.43 12.25 5.94 3.71 14.06 9.09 18.05 11.95 3.99 2.87 10.4 7.75 14.25 10.87 3.85 3.11 10.04 8.42 13.75 11.79 4.02 3.66 7.66 6.15 9 6.16 1.24 0.01 3.02-0.56 3.97-1.25 1.55-1.15 0.83-2.38-7.41-12.77-5.01-6.32-14.79-17.13-21.71-24.02-6.93-6.89-17.33-16.31-23.1-20.94-5.77-4.63-16.57-12.38-24-17.23-7.43-4.84-13.59-8.7-13.71-8.56-0.11 0.14-0.88 4.08-1.7 8.75-1.19 6.74-2.03 8.97-4.05 10.75-1.4 1.24-3.33 2.25-4.29 2.25-0.96 0-8.05-2.3-15.75-5.1-7.7-2.81-20.86-6.86-29.25-9-8.39-2.15-20.76-4.8-27.5-5.9-6.74-1.1-12.67-2-13.19-2-0.57 0-0.67 2.8-0.25 7l0.69 7c12.97 0 14.4 0.35 16.75 2.41 2.06 1.81 2.75 3.33 2.75 6.09 0 2.76-0.69 4.28-2.75 6.09-2.35 2.06-3.78 2.41-9.75 2.41h-7c-0.48 14.45-0.76 15.4-3.25 17.58-1.6 1.41-4 2.42-5.75 2.42-1.87 0-3.94-0.94-5.5-2.5-2.22-2.22-2.5-3.33-2.5-10v-7.5c-14.17 0-15.28-0.28-17.5-2.5-1.56-1.56-2.5-3.63-2.5-5.5 0-1.65 0.34-3.74 0.75-4.64 0.41-0.9 1.99-2.25 3.5-3 1.51-0.75 5.67-1.36 9.25-1.36h6.5c0-13.28-0.34-15.11-1.5-15.5-0.83-0.27-2.96-0.44-4.75-0.37-1.79 0.08-6.85 0.52-11.25 0.99zm320.5 278.39c-3.57 0.81-8.64 2.16-11.25 2.99-4.7 1.48-4.76 1.56-5.91 7.25-0.89 4.38-0.89 6.89 0 10.5 0.64 2.61 2.25 6.44 3.59 8.5 1.33 2.06 4.14 4.97 6.25 6.46 2.1 1.49 6.07 3.24 8.82 3.89 4.17 0.98 6.49 0.87 14-0.61 4.95-0.99 13.27-1.79 18.5-1.78 5.23 0 12.65 0.6 16.5 1.32 6.22 1.16 7.5 1.12 11.5-0.39 2.48-0.93 5.51-2.58 6.75-3.67 2.06-1.81 2.16-2.32 1.13-6.22-0.61-2.34-2.07-5.67-3.25-7.39-1.17-1.73-3.93-4.58-6.13-6.34-2.2-1.75-6.48-4.69-9.5-6.53-3.02-1.83-9.1-4.55-13.5-6.04-6.42-2.18-10.27-2.78-19.5-3.07-7.74-0.23-13.62 0.13-18 1.13z"/>
		<path id="Path 3" class="s3" d="m55 18.05c-3.02 0.45-7.75 1.77-10.5 2.95-2.75 1.18-7.25 3.86-10 5.96-2.75 2.1-6.69 6.23-8.76 9.18-2.07 2.95-4.74 8.28-5.93 11.86-1.96 5.91-2.15 8.58-2.14 29.5 0.01 15.09 0.58 27.47 1.64 36 0.89 7.15 2.65 18.06 3.91 24.24 2.2 10.84 2.35 11.2 4.28 9.89 1.1-0.74 2.53-2.42 3.19-3.74 0.65-1.31 1.93-7.34 2.84-13.39 0.91-6.05 2.79-14.6 4.18-19 1.39-4.4 4-10.92 5.79-14.5 1.8-3.58 5.46-9.4 8.14-12.95 2.67-3.54 7.34-8.42 10.36-10.84 3.03-2.42 9.1-6.14 13.5-8.28 4.4-2.13 10.7-4.57 14-5.4 3.3-0.84 10.72-2 16.5-2.57 5.78-0.58 11.74-0.8 13.25-0.5 1.53 0.3 2.75 0.1 2.75-0.46 0-0.55 1.35-1.67 3-2.5 1.65-0.83 3.9-1.5 5-1.5 1.1 0 3.35 1.35 5 3 2.7 2.7 4.26 3.2 15.5 5 6.88 1.1 19.36 3.75 27.75 5.9 8.39 2.14 21.55 6.19 29.25 9 7.7 2.8 14.79 5.1 15.75 5.1 0.96 0 2.89-1.01 4.29-2.25 2.03-1.79 2.85-3.99 4.02-10.75 1.39-7.96 1.37-8.58-0.29-9.83-0.97-0.74-6.72-3.83-12.77-6.88-6.05-3.05-15.72-7.47-21.5-9.82-5.78-2.35-15.45-5.88-21.5-7.84-6.05-1.97-15.5-4.71-21-6.09-5.5-1.37-16.53-3.61-24.5-4.95-7.97-1.35-20.58-2.94-28-3.52-7.42-0.59-19.8-1.02-27.5-0.95-7.7 0.07-16.48 0.49-19.5 0.93z"/>
		<path id="Path 4" fill-rule="evenodd" class="s4" d="m229.26 79.5l1.44 2.5c0.89 1.54 5.52 4.61 12.07 8 5.85 3.03 15.49 8.54 21.43 12.25 5.94 3.71 14.06 9.09 18.05 11.95 3.99 2.87 10.4 7.75 14.25 10.87 3.85 3.11 10.04 8.42 13.75 11.79 3.71 3.38 7.65 6.14 8.75 6.14 1.1 0 2.9-0.45 4-1 1.78-0.89 2.69 0.05 8.39 8.75 3.51 5.36 8.68 13.91 11.5 19 2.81 5.09 7.08 13.64 9.48 19 2.41 5.36 6.06 14.25 8.11 19.75 2.05 5.5 5.27 15.63 7.15 22.5 1.89 6.88 4.51 18.35 5.82 25.5 1.31 7.15 2.87 17.95 3.47 24 0.6 6.05 1.2 17.3 1.34 25 0.13 7.7 0.01 19.78-0.76 39.67l2.75 2.42c1.51 1.32 3.88 2.41 5.25 2.41 1.38 0 6.89-2.25 12.25-4.99 5.36-2.75 9.86-4.89 10-4.75 0.13 0.13-0.28 2.49-0.92 5.24-0.9 3.82-0.9 6.24 0 10.25 0.64 2.89 2.26 6.94 3.6 9 1.33 2.06 4.14 4.97 6.25 6.46 2.1 1.49 6.07 3.24 8.82 3.89 4.17 0.98 6.49 0.87 14-0.62 5.16-1.03 13.26-1.78 19-1.76 5.5 0.02 12.7 0.58 16 1.25 3.3 0.67 7.35 0.96 9 0.66 1.65-0.31 4.8-1.73 7-3.14 2.2-1.42 4.12-2.45 4.26-2.29 0.14 0.17-0.07 2.32-0.47 4.8-0.4 2.48-1.98 6.41-3.51 8.75-1.53 2.34-5.22 6.16-8.21 8.5-2.98 2.34-8.94 6.39-13.25 9-4.3 2.61-11.19 5.96-15.32 7.44-6.38 2.29-9.15 2.7-18.5 2.73-6.05 0.02-13.25-0.34-16-0.79-4.68-0.79-5.19-0.66-7.93 2.02-2.82 2.75-2.89 3.04-2 8.35 0.51 3.02 0.89 10.23 0.85 16-0.07 9.27-0.46 11.5-3.29 19-1.76 4.68-5.32 11.88-7.9 16-2.59 4.13-6.85 10.09-9.47 13.25-2.62 3.16-6.67 6.75-9.01 7.97-3.19 1.66-6 2.23-11.25 2.25-5.85 0.03-7.78-0.42-11.75-2.72-2.92-1.69-6.53-5.16-9.36-9-2.53-3.44-5.63-8.27-6.88-10.75-1.26-2.48-3.24-7.65-4.42-11.5-1.17-3.85-2.41-9.93-2.75-13.5-0.33-3.57-1-7.29-1.48-8.25-0.47-0.96-2.43-2.43-4.36-3.25-2.11-0.9-3.49-2.2-3.49-3.25 0.01-0.96 0.86-5.8 1.88-10.75 1.03-4.95 3.27-12.71 4.99-17.25 2.39-6.33 3.7-8.48 5.62-9.25 1.38-0.55 3.65-1 5.05-1 1.4 0 3.65-1.12 5-2.5 1.57-1.6 2.46-3.67 2.48-5.75 0.01-2.07-0.81-4.08-2.25-5.54-2.27-2.29-2.4-2.3-34.78-2.58-27.22-0.24-34.61-0.62-45.5-2.38-7.15-1.15-18.18-3.29-24.5-4.75-6.32-1.46-16.45-4.24-22.5-6.18-6.05-1.94-15.72-5.45-21.5-7.8-5.77-2.34-14.77-6.4-20-9-5.22-2.61-13.32-7.02-18-9.81-4.68-2.78-13-8.24-18.5-12.12-5.5-3.88-14.05-10.41-19-14.51-4.95-4.11-13.95-12.48-20-18.6-6.05-6.13-14.72-15.83-19.26-21.56-4.54-5.73-11.14-14.69-14.65-19.92-3.51-5.22-6.32-9.58-6.24-9.67 0.08-0.1 5.78-1.31 12.65-2.7 6.88-1.39 17.23-4.07 23-5.96 5.78-1.9 15.23-5.52 21-8.05 5.78-2.53 15.23-7.43 21-10.88 5.78-3.46 13.88-8.81 18-11.9 4.13-3.09 11.17-8.93 15.65-12.98 4.47-4.05 11.16-10.73 14.85-14.86 3.69-4.12 9.09-10.65 11.99-14.5 2.9-3.85 7.66-10.82 10.57-15.5 2.91-4.68 7.65-13.45 10.52-19.5 2.87-6.05 6.61-14.94 8.32-19.75 1.7-4.81 3.1-10.32 3.1-12.25 0-2.68-0.68-4.02-2.91-5.75-2.26-1.74-2.79-2.81-2.37-4.75zm72.6 4.88c0.9 0.25 4.34 0.76 7.64 1.14 3.3 0.38 9.82 1.8 14.5 3.16 4.67 1.36 11.87 4.04 16 5.96 4.12 1.91 11.1 5.88 15.5 8.8 4.4 2.93 11.37 8.45 15.5 12.27 4.12 3.82 8.95 9.16 10.72 11.87 1.78 2.71 3.02 5.26 2.75 5.67-0.26 0.41-1.6 0.53-2.97 0.25-1.38-0.28-5.54-2.81-9.25-5.63-3.72-2.83-10.13-7.11-14.25-9.52-4.13-2.41-10.99-5.73-15.25-7.37-4.27-1.64-11.69-3.95-25.25-7.29l-9.2-9.09c-5.06-5.01-8.95-9.46-8.65-9.89 0.31-0.44 1.3-0.58 2.21-0.33zm-226.52 203.62c0.36 0 2.77 2.36 5.35 5.25 2.58 2.89 8.55 9.07 13.27 13.75 7.93 7.86 8.67 8.95 9.93 14.5 0.74 3.3 2.69 9.82 4.32 14.5 1.63 4.67 4.97 12.32 7.41 17 2.45 4.67 7.6 12.77 11.44 18 3.85 5.23 7 10.17 7 11 0 0.82-0.36 1.82-0.78 2.22-0.43 0.39-2.02 0.06-3.53-0.75-1.52-0.81-6.35-5.07-10.75-9.47-4.4-4.4-10.29-11.26-13.09-15.25-2.81-3.99-6.86-10.74-9-15-2.15-4.26-4.93-8.44-6.16-9.29-1.24-0.85-3.6-1.41-5.25-1.25-2.79 0.27-3.12-0.06-4.66-4.71-0.91-2.75-2.35-8.38-3.2-12.5-0.84-4.13-1.85-12.11-2.24-17.75-0.39-5.64-0.42-10.25-0.06-10.25z"/>
		<path id="Path 5" class="s1" d="m243.69 195.15c-1.48 1.29-2.95 3.7-3.27 5.35-0.41 2.09-0.01 3.76 1.32 5.5 1.05 1.37 6.59 4.77 12.33 7.54 5.75 2.78 11.22 6.15 12.19 7.5 0.96 1.35 1.77 3.81 1.78 5.46 0.01 1.65-1.89 6.82-4.23 11.5-3.04 6.05-6.14 10.38-10.78 15.03-4.65 4.64-8.98 7.74-15.03 10.78-4.68 2.34-9.51 4.24-10.75 4.22-1.24-0.02-3.6-0.71-5.25-1.53-2.36-1.18-4.14-3.89-8.34-12.75-3.98-8.4-6.01-11.57-8-12.5-1.46-0.69-3.56-1.25-4.66-1.25-1.1 0-3.24 1.09-4.75 2.41-2 1.76-2.74 3.32-2.69 5.75 0.03 1.91 2.43 8.27 5.6 14.84 4.23 8.77 6.59 12.4 9.94 15.3 2.66 2.3 6.58 4.43 9.9 5.38q5.5 1.58 11 0.98c3.35-0.37 8.63-2.12 13.5-4.49 4.4-2.14 10.89-6.09 14.42-8.78 3.53-2.69 8.31-7.14 10.63-9.89 2.31-2.75 5.91-7.7 7.99-11 2.08-3.3 4.88-8.93 6.22-12.5 1.96-5.21 2.35-7.79 1.99-13-0.26-3.72-1.32-8.21-2.48-10.5-1.11-2.2-3.88-5.69-6.15-7.75-2.27-2.06-8.51-5.81-13.87-8.33-5.36-2.52-11.12-4.81-12.81-5.1-2.27-0.39-3.74 0.07-5.75 1.83z"/>
		<path id="Path 6" class="s2" d="m246.86 230.77c-8.86 9.13-14.29 15.61-16.12 19.25-1.52 3.01-2.76 6.6-2.75 7.98 0.01 1.37 0.92 3.96 2.01 5.75l2 3.25c11.68-6.07 16.95-9.99 21-14 4.71-4.68 7.74-8.88 10.81-15 2.45-4.9 4.24-9.87 4.22-11.75-0.02-2.25-0.95-4.17-3.03-6.25-1.65-1.65-3.4-3-3.89-3-0.49 0-6.9 6.2-14.25 13.77z"/>
		<path id="Path 7" class="s3" d="m240.37 217.17c-2.68 3.98-7.57 9.93-10.87 13.21-3.3 3.29-9.04 7.92-12.75 10.3-3.71 2.37-6.75 4.55-6.75 4.82 0 0.28 2.03 4.78 4.5 10 3.45 7.28 5.2 9.85 7.5 11 1.65 0.82 3.9 1.5 5 1.5 1.1 0 2.68-0.23 3.5-0.5 1.28-0.43 1.2-0.98-0.5-3.75-1.09-1.79-2-4.37-2.01-5.75-0.01-1.37 1.23-4.97 2.75-7.98 1.86-3.69 7.17-9.99 16.26-19.28 7.43-7.59 13.27-13.95 13-14.15-0.27-0.19-2.75-1.47-5.5-2.84-2.75-1.37-5.96-2.79-7.13-3.16-1.81-0.56-2.87 0.43-7 6.58z"/>
	</g>
</svg>